<svg width="18" height="22" viewBox="0 0 18 22" fill="none" xmlns="http://www.w3.org/2000/svg">
    <path d="M0 13C0 18 4.02944 22 9 22C13.9706 22 18 18 18 13C18 5.95235 12.4812 1.97071 10.0868 0.574887C9.7855 0.399227 9.6348 0.311397 9.4683 0.331417C9.3348 0.347457 9.1864 0.438707 9.1119 0.550527C9.0188 0.690117 9.0295 0.869487 9.0509 1.22824C9.2471 4.52075 9.7852 11 6.42857 11C4.27186 11 3.92403 9.28039 3.86793 6.56244C3.85825 6.09364 3.85342 5.85924 3.72461 5.71989C3.62106 5.60787 3.4374 5.54268 3.28639 5.56435C3.09856 5.59132 2.96098 5.75374 2.68582 6.0786C1.55088 7.4185 0 9.82949 0 13Z" fill="white"/>
</svg>
